<svg xmlns="http://www.w3.org/2000/svg" width="256" height="256" viewBox="0 0 256 256" fill="none"><g stroke="#18181b" stroke-width="4.00" stroke-opacity="0.22" stroke-linejoin="round" stroke-linecap="round"><path d="M 2.00 15.80 Q 2.00 2.00 23.57 2.00 L 172.75 2.00 Q 181.73 2.00 174.07 7.55 L 54.59 94.18 Q 28.55 113.06 24.04 113.73 L 4.92 116.56 Q 2.00 116.99 2.00 104.34 Z" fill="#00bafe"/><path d="M 115.07 140.71 Q 101.94 142.06 91.85 137.83 L 47.32 119.20 Q 42.57 117.22 55.30 108.00 L 174.64 21.59 Q 201.68 2.00 205.12 2.00 L 219.87 2.00 Q 221.90 2.00 217.62 15.21 L 185.59 114.31 Q 179.19 134.12 167.60 135.31 Z" fill="#422ad5"/><path d="M 158.83 245.88 Q 164.18 254.00 151.21 254.00 L 21.46 254.00 Q 2.00 254.00 2.00 238.95 L 2.00 144.91 Q 2.00 128.61 5.65 128.06 L 25.33 125.12 Q 30.11 124.41 41.54 129.19 L 85.88 147.75 Q 97.30 152.53 108.67 169.78 Z" fill="#00d3bb"/><path d="M 254.00 223.76 Q 254.00 254.00 251.33 254.00 L 234.88 254.00 Q 231.76 254.00 225.85 237.94 L 196.71 158.81 Q 189.53 139.31 197.08 115.97 L 227.74 21.22 Q 233.96 2.00 236.77 2.00 L 251.60 2.00 Q 254.00 2.00 254.00 32.24 Z" fill="#00d3bb"/><path d="M 215.53 243.16 Q 219.51 254.00 215.37 254.00 L 184.27 254.00 Q 178.05 254.00 168.03 238.79 L 117.25 161.74 Q 111.23 152.61 117.39 151.98 L 170.08 146.57 Q 179.66 145.58 185.24 160.76 Z" fill="#422ad5"/></g></svg>
